<svg width="229" height="197" viewBox="0 0 229 197" fill="none" xmlns="http://www.w3.org/2000/svg">
    <path d="M228.01 169.479C205.536 169.479 183.982 160.551 168.09 144.659C152.199 128.767 143.271 107.213 143.271 84.7393C143.271 62.265 152.199 40.7113 168.09 24.8195C183.982 8.92788 205.536 2.41114e-06 228.01 0V84.7393V169.479Z" fill="#19C2B8"/>
    <path d="M91.7835 141.232C91.7835 146.169 95.7855 150.171 100.722 150.171C105.659 150.171 109.661 146.169 109.661 141.232C109.661 136.295 105.659 132.293 100.722 132.293C95.7855 132.293 91.7835 136.295 91.7835 141.232Z" fill="#19C2B8"/>
    <path d="M111.091 196.295C111.091 181.786 116.855 167.872 127.114 157.612C137.373 147.353 151.288 141.59 165.796 141.59C180.305 141.59 194.219 147.353 204.479 157.612C214.738 167.872 220.501 181.786 220.501 196.295H165.796H111.091Z" fill="#19C2B8"/>
    <path d="M0.250717 195.937C0.250718 188.351 3.26434 181.075 8.62861 175.711C13.9929 170.347 21.2684 167.333 28.8547 167.333C36.441 167.333 43.7165 170.347 49.0808 175.711C54.4451 181.075 57.4587 188.351 57.4587 195.937H28.8547H0.250717Z" fill="#19C2B8"/>
    <path d="M94.6439 194.507C134.928 194.507 167.584 161.851 167.584 121.567C167.584 81.2833 134.928 48.6268 94.6439 48.6268C54.3601 48.6268 21.7037 81.2833 21.7037 121.567C21.7037 161.851 54.3601 194.507 94.6439 194.507Z" fill="#CCB8B8" fill-opacity="0.2"/>
</svg>
